<?xml version="1.0" standalone="no"?>
<!DOCTYPE svg PUBLIC "-//W3C//DTD SVG 20010904//EN"
 "http://www.w3.org/TR/2001/REC-SVG-20010904/DTD/svg10.dtd">
<svg version="1.0" xmlns="http://www.w3.org/2000/svg"
 width="1577.000000pt" height="1577.000000pt" viewBox="0 0 1577.000000 1577.000000"
 preserveAspectRatio="xMidYMid meet">
<metadata>
Created by potrace 1.15, written by Peter Selinger 2001-2017
</metadata>
<g transform="translate(0.000000,1577.000000) scale(0.100000,-0.100000)"
fill="#000000" stroke="none">
<path d="M7410 15749 c-1532 -102 -2939 -611 -4164 -1507 -342 -249 -586 -461
-926 -801 -354 -355 -571 -609 -845 -991 -791 -1101 -1288 -2411 -1424 -3750
-35 -339 -44 -572 -38 -950 9 -548 56 -982 163 -1490 415 -1977 1598 -3740
3284 -4892 1052 -720 2274 -1174 3541 -1317 330 -38 488 -46 889 -46 415 0
567 9 925 51 3235 379 5928 2752 6719 5919 88 353 176 854 176 1000 -1 365
-240 712 -582 845 -122 48 -224 63 -367 57 -140 -6 -228 -26 -347 -81 -229
-106 -403 -303 -482 -546 -12 -36 -36 -155 -53 -265 -232 -1507 -976 -2819
-2149 -3790 -818 -677 -1842 -1134 -2910 -1299 -496 -76 -1057 -91 -1547 -41
-1266 130 -2421 632 -3383 1468 -164 143 -454 436 -604 611 -717 839 -1190
1851 -1370 2936 -203 1218 -36 2459 479 3572 594 1284 1649 2339 2933 2933
1093 506 2305 676 3505 490 1261 -196 2432 -793 3346 -1705 197 -196 511 -557
511 -586 0 -5 -248 -257 -551 -559 -398 -398 -557 -563 -575 -598 -89 -173
-23 -393 143 -476 125 -62 820 -162 1428 -206 663 -47 1705 -49 2207 -5 131
11 184 35 275 123 91 87 111 134 123 287 42 533 39 1480 -5 2145 -32 471 -103
1037 -170 1356 -28 131 -92 219 -195 268 -47 22 -68 26 -150 26 -167 0 -125
33 -713 -554 l-518 -516 -26 30 c-541 636 -1069 1113 -1703 1537 -1121 749
-2333 1175 -3710 1304 -205 19 -927 27 -1140 13z"/>
<path d="M6805 11860 c-355 -20 -800 -57 -1179 -98 l-249 -27 -32 -180 c-18
-99 -96 -481 -175 -848 -100 -473 -139 -672 -132 -679 8 -8 57 -2 169 20 688
137 1188 188 1746 179 340 -5 501 -23 674 -73 214 -61 366 -171 440 -319 76
-150 70 -360 -14 -505 -203 -348 -593 -462 -1528 -447 -279 4 -364 9 -553 33
-135 17 -226 24 -231 18 -4 -5 -20 -191 -34 -414 -15 -223 -43 -609 -64 -858
-27 -327 -34 -455 -26 -463 8 -8 55 -7 170 5 295 30 530 38 898 33 250 -3 401
-10 495 -22 624 -77 927 -253 1011 -586 30 -117 23 -307 -14 -424 -48 -145
-145 -279 -277 -379 -86 -66 -257 -153 -387 -197 -199 -66 -356 -90 -653 -96
-269 -6 -446 3 -722 37 -451 55 -972 175 -1446 332 -106 35 -157 47 -164 40
-7 -7 -2 -95 16 -284 38 -401 95 -1134 118 -1527 l3 -44 245 -48 c881 -173
1450 -236 2225 -246 356 -4 478 -2 640 11 786 64 1385 224 1872 500 617 349
995 860 1120 1516 25 135 27 163 27 405 0 245 -1 268 -28 395 -91 441 -310
765 -691 1020 -194 130 -402 215 -700 285 -132 31 -138 34 -110 45 76 29 318
136 390 172 313 157 613 393 804 633 201 251 290 437 358 750 35 157 35 164
37 405 1 197 -3 265 -17 350 -152 871 -811 1368 -2027 1530 -183 24 -435 47
-655 60 -267 15 -984 10 -1350 -10z"/>
</g>
</svg>
