<?xml version="1.0" encoding="iso-8859-1"?>
<!-- Generator: Adobe Illustrator 19.0.0, SVG Export Plug-In . SVG Version: 6.00 Build 0)  -->
<svg version="1.1" id="Layer_1" xmlns="http://www.w3.org/2000/svg" xmlns:xlink="http://www.w3.org/1999/xlink" x="0px" y="0px"
	 viewBox="0 0 512 512" style="enable-background:new 0 0 512 512;" xml:space="preserve">
<path style="fill:#4C1B27;" d="M255.798,512c-13.035,0-26.069-3.65-37.462-10.953c-31.514-20.204-77.202-53.898-115.899-99.685
	C54.38,344.496,30.01,284.398,30.01,222.738C30.01,99.92,131.4,0,256.024,0C380.622,0,481.99,99.92,481.99,222.738
	c0,65.719-28.196,129.856-83.807,190.625c-5.497,6.005-14.819,6.418-20.825,0.923c-6.005-5.497-6.419-14.819-0.923-20.825
	c50.48-55.163,76.076-112.603,76.076-170.724C452.51,116.176,364.366,29.48,256.024,29.48
	c-108.369,0-196.533,86.696-196.533,193.258c0,127.671,122.212,219.806,174.757,253.493c13.182,8.45,30.19,8.396,43.329-0.139
	c14.73-9.569,29.184-19.965,42.961-30.904c6.375-5.062,15.646-3.997,20.71,2.379c5.062,6.375,3.996,15.648-2.379,20.71
	c-14.504,11.515-29.722,22.462-45.231,32.537C282.156,508.269,268.977,512,255.798,512z"/>
<path style="fill:#D46366;" d="M223.339,287.641c-0.208-2.223-5.482-54.526-40.466-77.839
	c-12.679-8.453-28.725-12.749-47.675-12.749c-21.223,0-38.369,5.43-39.089,5.66c-2.373,0.765-3.899,3.092-3.675,5.597
	c0.208,2.211,5.46,54.538,40.449,77.844c12.65,8.453,28.679,12.749,47.634,12.749c21.24,0,38.423-5.436,39.148-5.672
	C222.038,292.471,223.569,290.145,223.339,287.641"/>
<path style="fill:#4C1B27;" d="M180.518,313.643c-21.915,0-40.697-5.125-55.825-15.232c-40.013-26.653-46.344-82.446-46.935-88.72
	c-0.849-9.498,4.839-18.109,13.826-21.006c2.078-0.663,20.617-6.371,43.612-6.371c21.908,0,40.698,5.122,55.851,15.225
	c40.075,26.704,46.378,82.46,46.966,88.728c0.87,9.484-4.826,18.108-13.848,21.001C223.429,307.507,204.317,313.643,180.518,313.643
	z M108.316,214.787c2.699,14.277,10.821,44.498,32.74,59.1c10.21,6.823,23.481,10.277,39.462,10.277
	c10.85,0,20.583-1.613,26.942-2.998c-2.697-14.287-10.815-44.473-32.761-59.098c-10.227-6.819-23.516-10.275-39.5-10.275
	C124.412,211.794,114.69,213.402,108.316,214.787z"/>
<path style="fill:#D46366;" d="M415.891,202.714c-0.719-0.23-17.866-5.66-39.089-5.66c-18.95,0-34.997,4.295-47.675,12.749
	c-34.985,23.313-40.265,75.622-40.466,77.839c-0.231,2.504,1.3,4.83,3.673,5.597c0.731,0.23,17.906,5.666,39.146,5.666
	c18.961,0,34.985-4.295,47.635-12.749c34.99-23.307,40.246-75.633,40.448-77.844C419.79,205.806,418.263,203.479,415.891,202.714"/>
<g>
	<path style="fill:#4C1B27;" d="M331.482,313.643c-22.302,0-40.205-5.286-43.568-6.346c-9.12-2.945-14.802-11.574-13.929-21.016
		c0.223-2.465,5.989-61.439,46.969-88.746c15.148-10.1,33.939-15.222,55.85-15.222c22.975,0,41.528,5.706,43.568,6.357
		c9.039,2.916,14.725,11.531,13.873,20.965c-0.228,2.513-6.051,61.541-46.955,88.787
		C372.18,308.518,353.398,313.643,331.482,313.643z M304.522,281.164c6.365,1.386,16.106,3,26.959,3
		c15.983,0,29.253-3.454,39.446-10.263c22.036-14.678,30.106-44.833,32.774-59.109c-6.368-1.384-16.106-2.998-26.899-2.998
		c-15.985,0-29.275,3.457-39.499,10.272C315.249,236.761,307.186,266.905,304.522,281.164z"/>
	<path style="fill:#4C1B27;" d="M292.85,399.219h-73.7c-8.141,0-14.74-6.599-14.74-14.74s6.599-14.74,14.74-14.74h73.7
		c8.141,0,14.74,6.599,14.74,14.74S300.991,399.219,292.85,399.219z"/>
</g>
<g>
</g>
<g>
</g>
<g>
</g>
<g>
</g>
<g>
</g>
<g>
</g>
<g>
</g>
<g>
</g>
<g>
</g>
<g>
</g>
<g>
</g>
<g>
</g>
<g>
</g>
<g>
</g>
<g>
</g>
</svg>
