<?xml version="1.0" standalone="no"?>
<!DOCTYPE svg PUBLIC "-//W3C//DTD SVG 20010904//EN"
 "http://www.w3.org/TR/2001/REC-SVG-20010904/DTD/svg10.dtd">
<svg version="1.0" xmlns="http://www.w3.org/2000/svg"
 width="1577.000000pt" height="1577.000000pt" viewBox="0 0 1577.000000 1577.000000"
 preserveAspectRatio="xMidYMid meet">
<metadata>
Created by potrace 1.15, written by Peter Selinger 2001-2017
</metadata>
<g transform="translate(0.000000,1577.000000) scale(0.100000,-0.100000)"
fill="#000000" stroke="none">
<path d="M7410 15749 c-1532 -102 -2939 -611 -4164 -1507 -342 -249 -586 -461
-926 -801 -354 -355 -571 -609 -845 -991 -791 -1101 -1288 -2411 -1424 -3750
-35 -339 -44 -572 -38 -950 9 -548 56 -982 163 -1490 415 -1977 1598 -3740
3284 -4892 1052 -720 2274 -1174 3541 -1317 330 -38 488 -46 889 -46 415 0
567 9 925 51 3235 379 5928 2752 6719 5919 88 353 176 854 176 1000 -1 365
-240 712 -582 845 -122 48 -224 63 -367 57 -140 -6 -228 -26 -347 -81 -229
-106 -403 -303 -482 -546 -12 -36 -36 -155 -53 -265 -232 -1507 -976 -2819
-2149 -3790 -818 -677 -1842 -1134 -2910 -1299 -496 -76 -1057 -91 -1547 -41
-1266 130 -2421 632 -3383 1468 -164 143 -454 436 -604 611 -717 839 -1190
1851 -1370 2936 -203 1218 -36 2459 479 3572 594 1284 1649 2339 2933 2933
1093 506 2305 676 3505 490 1261 -196 2432 -793 3346 -1705 197 -196 511 -557
511 -586 0 -5 -248 -257 -551 -559 -398 -398 -557 -563 -575 -598 -89 -173
-23 -393 143 -476 125 -62 820 -162 1428 -206 663 -47 1705 -49 2207 -5 131
11 184 35 275 123 91 87 111 134 123 287 42 533 39 1480 -5 2145 -32 471 -103
1037 -170 1356 -28 131 -92 219 -195 268 -47 22 -68 26 -150 26 -167 0 -125
33 -713 -554 l-518 -516 -26 30 c-541 636 -1069 1113 -1703 1537 -1121 749
-2333 1175 -3710 1304 -205 19 -927 27 -1140 13z"/>
<path d="M6816 11846 c-55 -43 -153 -113 -216 -156 -180 -120 -677 -422 -1015
-618 l-71 -41 -12 -403 c-15 -475 -33 -884 -63 -1391 -12 -212 -18 -372 -13
-377 5 -4 114 66 244 157 503 355 1052 714 1067 699 7 -7 -10 -538 -32 -1026
-59 -1266 -186 -3351 -271 -4463 -14 -186 -24 -344 -21 -351 4 -10 248 -13
1314 -12 l1308 1 6 520 c10 866 49 1689 189 4080 114 1938 136 2271 185 2800
31 330 54 614 53 630 l-3 30 -1274 0 -1273 0 -102 -79z"/>
</g>
</svg>
