<?xml version="1.0" encoding="iso-8859-1"?>
<!-- Generator: Adobe Illustrator 19.0.0, SVG Export Plug-In . SVG Version: 6.00 Build 0)  -->
<svg version="1.1" id="Layer_1" xmlns="http://www.w3.org/2000/svg" xmlns:xlink="http://www.w3.org/1999/xlink" x="0px" y="0px"
	 viewBox="0 0 490.001 490.001" style="enable-background:new 0 0 490.001 490.001;" xml:space="preserve">
<g>
	<g>
		<g>
			<path d="M450,0h-410c-22.055,0-40,17.944-40,40v280c0,22.056,17.944,40,40,40h235v120c0,4.118,2.523,7.814,6.358,9.314
				c1.184,0.463,2.417,0.687,3.64,0.687c2.738,0,5.419-1.126,7.35-3.218L409.378,360H450c22.056,0,40-17.944,40-40V40
				C490,17.944,472.057,0,450,0z M470,320c0,11.028-8.972,20-20,20h-45c-2.791,0-5.455,1.167-7.348,3.217L295,454.423V350
				c0-5.523-4.478-10-10-10h-245c-11.028,0-20-8.972-20-20V40c0-11.028,8.972-20,20-20h410c11.028,0,20,8.972,20,20V320z"/>
			<path d="M215.001,205v-50c0-44.112-35.888-80-80-80s-80,35.888-80,80v50c0,44.112,35.888,80,80,80
				c18.459,0,35.464-6.301,49.016-16.842l23.913,23.913l14.143-14.143l-23.913-23.913C208.7,240.464,215.001,223.459,215.001,205z
				 M195.001,205c0,12.939-4.131,24.924-11.123,34.734l-26.806-26.806l-14.143,14.143l26.806,26.806
				C159.925,260.87,147.94,265,135.001,265c-33.084,0-60-26.916-60-60v-50c0-33.084,26.916-60,60-60s60,26.916,60,60V205z"/>
			<rect x="255.001" y="95" width="80" height="20"/>
			<rect x="350" y="95" width="60" height="20"/>
			<rect x="255.001" y="145" width="180" height="20"/>
			<rect x="255.001" y="195" width="180" height="20"/>
			<rect x="255.001" y="245" width="180" height="20"/>
		</g>
	</g>
</g>
<g>
</g>
<g>
</g>
<g>
</g>
<g>
</g>
<g>
</g>
<g>
</g>
<g>
</g>
<g>
</g>
<g>
</g>
<g>
</g>
<g>
</g>
<g>
</g>
<g>
</g>
<g>
</g>
<g>
</g>
</svg>
