<svg width="124.99999999999999" height="37" xmlns="http://www.w3.org/2000/svg">
 <!-- Created with Method Draw - http://github.com/duopixel/Method-Draw/ -->

 <g>
  <title>Layer 1</title>
 </g>
 <g>
  <title>background</title>
  <g transform="matrix(1.33333, 0, 0, 1.33333, 0, 0)" id="svg_6">
   <path id="svg_7" fill="#000000" d="m13.900568,2.087292c-6.591872,0 -11.999998,5.408081 -11.999998,12c0,6.591918 5.408126,11.999999 11.999998,11.999999c6.591871,0 12,-5.408081 12,-11.999999c0,-6.591919 -5.408129,-12 -12,-12zm32.999994,0c-6.591869,0 -11.999992,5.408081 -11.999992,12c0,6.591918 5.408123,11.999999 11.999992,11.999999c6.591873,0 11.999989,-5.408081 11.999989,-11.999999c0,-6.591919 -5.408115,-12 -11.999989,-12zm33.000019,0c-6.591881,0 -12.000023,5.408081 -12.000023,12c0,6.591918 5.408142,11.999999 12.000023,11.999999c6.591873,0 12,-5.408081 12,-11.999999c0,-6.591919 -5.408127,-12 -12,-12zm-66.000013,6c3.349243,0 5.999998,2.650757 5.999998,6c0,3.349181 -2.650755,5.999999 -5.999998,5.999999c-3.349243,0 -5.999999,-2.650818 -5.999999,-5.999999c0,-3.349243 2.650755,-6 5.999999,-6zm32.999994,0c3.349243,0 6,2.650757 6,6c0,3.349181 -2.650757,5.999999 -6,5.999999c-3.349239,0 -5.999996,-2.650818 -5.999996,-5.999999c0,-3.349243 2.650757,-6 5.999996,-6zm33.000019,0c3.349258,0 6.000015,2.650757 6.000015,6c0,3.349181 -2.650757,5.999999 -6.000015,5.999999c-3.349251,0 -6.000008,-2.650818 -6.000008,-5.999999c0,-3.349243 2.650757,-6 6.000008,-6z"/>
  </g>
 </g>
</svg>